<?xml version="1.0" standalone="no"?>
<!DOCTYPE svg PUBLIC "-//W3C//DTD SVG 20010904//EN"
 "http://www.w3.org/TR/2001/REC-SVG-20010904/DTD/svg10.dtd">
<svg version="1.0" xmlns="http://www.w3.org/2000/svg"
 width="1024.000000pt" height="1024.000000pt" viewBox="0 0 1024.000000 1024.000000"
 preserveAspectRatio="xMidYMid meet">
<metadata>
Created by potrace 1.14, written by Peter Selinger 2001-2017
</metadata>
<g transform="translate(0.000000,1024.000000) scale(0.100000,-0.100000)"
fill="#000000" stroke="none">
<path d="M5415 10078 c-41 -9 -81 -39 -90 -68 -3 -9 -12 -17 -20 -17 -18 0
-18 2 -5 28 9 16 7 21 -15 29 -21 8 -36 5 -73 -13 -37 -17 -54 -35 -81 -80
-31 -53 -37 -57 -62 -52 -30 7 -49 -14 -49 -54 0 -12 -4 -21 -10 -21 -5 0 -10
-9 -10 -20 0 -23 -18 -27 -26 -5 -8 20 -38 19 -55 -1 -15 -18 -19 -33 -24 -89
-2 -22 -4 -43 -4 -47 -1 -4 -16 -2 -33 5 -18 6 -78 12 -133 12 -128 0 -203
-26 -279 -97 l-51 -48 35 6 c40 6 74 6 215 0 111 -4 127 -7 146 -23 8 -6 33
-17 57 -24 23 -7 47 -18 53 -26 9 -10 3 -13 -32 -13 -24 0 -82 -12 -128 -25
-47 -14 -105 -28 -130 -31 -87 -10 -89 -14 -18 -45 72 -32 143 -41 219 -27 68
12 98 -7 139 -91 58 -118 67 -216 22 -235 -11 -6 -32 -27 -46 -49 -43 -65 -22
-160 45 -210 20 -15 42 -20 78 -20 27 1 50 -2 50 -6 0 -13 -84 -95 -173 -169
-48 -41 -97 -83 -108 -95 -38 -41 -98 -137 -117 -190 -39 -106 -40 -102 20
-64 54 34 118 61 126 53 2 -3 -12 -24 -33 -48 -54 -63 -102 -172 -124 -279
-17 -84 -22 -110 -35 -184 -9 -50 -27 -118 -42 -154 -12 -31 -26 -44 -65 -62
-27 -13 -49 -26 -49 -29 0 -3 18 -4 40 -2 24 3 40 0 40 -7 0 -13 -96 -42 -152
-45 -49 -2 -158 22 -158 35 0 5 -6 9 -14 9 -18 0 -107 90 -100 102 3 4 0 8 -5
8 -6 0 -11 6 -11 14 0 8 -6 16 -12 19 -9 3 -4 11 12 23 41 29 108 101 126 136
69 132 44 284 -62 390 -43 43 -123 94 -161 103 -10 2 -41 10 -69 18 -85 24
-309 17 -414 -12 -19 -6 -69 -20 -110 -31 -41 -12 -99 -31 -129 -42 -29 -12
-60 -21 -67 -21 -8 0 -14 -4 -14 -9 0 -5 -4 -7 -9 -3 -5 3 -12 1 -15 -4 -3 -5
-17 -12 -31 -15 -14 -4 -49 -17 -78 -30 -28 -13 -72 -33 -97 -44 -25 -10 -81
-35 -125 -55 -184 -81 -278 -113 -390 -130 -104 -17 -198 -13 -280 10 -16 4
-18 3 -8 -8 16 -16 75 -38 138 -51 78 -16 83 -19 60 -28 -24 -10 -56 -22 -70
-26 -48 -15 -114 -37 -130 -45 -20 -8 -129 -41 -152 -45 -6 -1 -27 -7 -45 -13
-61 -19 -270 -61 -279 -55 -5 3 -9 1 -9 -3 0 -5 -12 -10 -27 -11 -16 -1 -50
-6 -78 -11 -62 -12 -199 -25 -353 -35 -29 -2 -55 -5 -58 -8 -13 -14 105 -100
171 -124 38 -14 78 -30 88 -36 10 -5 64 -12 120 -15 100 -5 155 -21 87 -25
-41 -2 -45 -2 -128 -12 -34 -5 -91 -10 -125 -11 -34 -2 -64 -4 -66 -4 -3 -1 6
-12 18 -25 30 -32 117 -73 172 -81 24 -4 47 -9 52 -12 4 -2 50 -5 102 -5 52 0
95 -3 95 -8 0 -10 -30 -17 -115 -26 -38 -3 -77 -8 -85 -9 -8 -2 -32 -4 -52 -4
-26 -1 -36 -5 -32 -14 4 -13 124 -83 124 -73 0 3 18 -1 40 -9 22 -8 54 -13 72
-11 18 2 42 0 53 -4 18 -7 18 -9 -8 -19 -16 -6 -35 -11 -42 -11 -8 0 -36 -8
-62 -19 -26 -10 -52 -19 -58 -20 -20 -2 -161 -55 -183 -69 -12 -8 -22 -12 -22
-9 0 10 -142 -65 -204 -107 -105 -72 -155 -139 -160 -214 -3 -47 15 -79 68
-119 43 -33 151 -138 200 -194 74 -85 173 -251 216 -359 19 -48 19 -50 2 -67
-26 -25 -44 -76 -41 -110 4 -31 32 -78 64 -105 17 -15 100 -60 115 -63 3 0 21
-6 40 -13 140 -47 441 -51 665 -7 109 22 301 79 319 96 22 20 44 4 96 -69 133
-186 205 -339 235 -497 10 -54 17 -185 9 -185 -3 0 -21 15 -38 33 -83 84 -147
137 -150 125 -3 -7 -10 -44 -16 -83 -12 -76 -37 -164 -51 -180 -5 -5 -9 -15
-9 -23 0 -47 -237 -455 -272 -470 -4 -2 -8 -8 -8 -14 0 -5 -8 -20 -17 -33 -10
-12 -25 -33 -33 -45 -8 -12 -20 -28 -25 -34 -15 -16 -156 -211 -184 -254 -13
-20 -27 -39 -31 -42 -23 -17 -196 -296 -252 -409 -113 -222 -159 -396 -160
-601 -1 -143 6 -230 28 -315 8 -33 16 -69 18 -80 12 -69 91 -259 160 -382 73
-130 307 -400 409 -471 17 -12 59 -42 92 -67 33 -25 67 -48 75 -52 8 -3 26
-14 40 -23 169 -115 525 -246 746 -276 27 -3 58 -8 69 -10 11 -3 56 -7 100
-10 88 -7 155 -12 169 -13 12 -1 -1 -14 -17 -17 -7 -1 -53 -19 -102 -40 -262
-112 -413 -287 -401 -464 14 -209 242 -378 576 -427 91 -14 362 -6 412 12 7 2
32 6 55 9 23 2 46 6 50 9 8 5 34 9 123 22 25 3 61 8 80 12 66 10 315 12 365 2
137 -27 157 -33 275 -86 l74 -34 81 35 c179 79 269 97 470 92 83 -2 161 -6
175 -9 14 -3 43 -8 65 -11 22 -3 90 -15 150 -26 61 -12 130 -24 155 -28 60 -9
293 -9 350 0 333 53 561 229 569 440 3 80 -25 156 -89 239 -61 78 -236 190
-375 240 -27 9 -50 21 -50 26 0 4 25 9 55 10 85 3 181 10 220 17 19 3 49 8 65
10 17 2 37 7 45 10 8 3 29 7 45 10 17 3 48 10 70 16 22 6 47 12 56 14 47 12
184 58 209 71 17 9 32 16 35 16 10 0 83 33 155 69 157 78 356 223 475 345 116
118 129 135 219 270 179 269 258 539 251 855 -3 123 -8 163 -35 269 -18 68
-35 131 -40 140 -4 9 -25 54 -45 101 -21 47 -54 114 -73 150 -31 58 -233 365
-282 430 -10 14 -62 84 -114 155 -53 72 -100 135 -106 142 -5 7 -10 15 -10 18
0 3 -22 36 -50 74 -27 38 -50 74 -50 80 0 6 -4 11 -10 11 -5 0 -10 4 -10 10 0
5 -12 26 -26 47 -84 125 -190 399 -197 511 -1 23 -7 42 -12 42 -6 0 -49 -36
-97 -80 -47 -44 -88 -80 -91 -80 -9 0 3 144 17 211 33 152 148 375 270 523
l24 28 63 -25 c35 -14 111 -37 169 -51 58 -15 122 -31 142 -37 79 -21 397 -32
508 -17 130 17 272 77 311 130 55 73 57 101 14 175 l-27 44 23 57 c75 186 220
373 432 559 118 103 5 266 -276 398 -72 34 -280 113 -307 117 -3 0 -14 4 -25
8 -11 4 -55 16 -97 26 -74 18 -99 32 -60 35 9 1 40 3 67 5 179 13 326 67 433
161 l44 38 -104 1 c-129 1 -239 6 -255 12 -26 9 -1 20 38 17 46 -4 222 19 259
33 14 5 29 10 33 9 15 0 127 76 121 82 -3 3 -33 7 -67 8 -107 4 -167 9 -174
16 -3 4 -2 7 3 8 5 0 25 2 44 4 98 7 247 64 290 110 l23 25 -64 1 c-35 1 -75
3 -89 4 -14 2 -63 6 -110 10 -188 16 -310 38 -500 90 -139 38 -310 102 -310
116 0 5 13 9 29 9 25 0 84 17 131 37 18 8 27 10 41 12 5 0 7 6 4 11 -4 6 -10
8 -14 6 -27 -17 -186 -25 -256 -13 -27 4 -59 9 -70 11 -37 5 -199 61 -275 94
-19 9 -37 16 -40 17 -3 0 -41 18 -85 38 -44 21 -90 40 -102 43 -13 4 -23 10
-23 15 0 5 -5 9 -11 9 -7 0 -74 24 -149 54 -75 30 -153 58 -173 61 -21 4 -37
10 -37 14 0 4 -6 8 -12 9 -7 1 -24 3 -38 5 -14 1 -29 5 -35 9 -5 3 -26 9 -45
12 -19 3 -46 8 -60 12 -45 11 -274 13 -320 3 -61 -13 -63 -13 -77 -22 -7 -5
-13 -6 -13 -2 0 10 -85 -37 -138 -78 -126 -96 -164 -260 -92 -402 30 -60 98
-136 130 -147 26 -8 -2 -65 -67 -131 -24 -25 -103 -68 -113 -62 -5 3 -11 1
-15 -5 -8 -12 -115 -13 -115 -1 0 5 11 12 25 15 37 9 31 28 -20 64 -45 32 -99
98 -117 142 -14 36 -27 111 -33 193 -3 40 -8 99 -11 132 -3 33 -6 67 -6 75 -1
19 -33 149 -43 173 -9 21 3 22 44 1 32 -16 110 -25 143 -16 15 4 10 12 -30 51
-122 117 -200 294 -257 586 -9 50 -20 97 -23 105 -3 8 -6 22 -8 30 -7 37 -65
215 -89 273 -16 37 14 14 59 -48 70 -95 114 -133 161 -140 22 -4 49 -8 60 -9
27 -4 113 22 153 46 54 33 101 115 119 205 16 86 0 228 -36 306 -27 59 -77
117 -102 117 -10 0 -19 -3 -20 -7 -15 -167 -21 -187 -61 -212 -18 -11 -18 -9
-12 41 8 64 9 143 1 180 -9 44 -59 128 -88 149 -33 23 -47 24 -69 4 -13 -12
-15 -25 -10 -68 8 -60 5 -225 -5 -256 -8 -25 -43 -28 -52 -5 -3 8 3 45 13 82
20 74 22 190 4 237 -19 51 -60 103 -92 116 -39 16 -97 19 -123 6 -27 -13 -66
-59 -61 -72 2 -5 -1 -18 -5 -27 -5 -9 -12 -34 -15 -55 -6 -42 -17 -58 -33 -49
-6 4 -5 20 5 48 15 45 25 128 17 157 -4 16 -46 43 -83 53 -8 3 -33 1 -55 -4z"/>
</g>
</svg>
